# xmcd
#
# Track frame offsets: 
#        150
#        18046
#        34906
#        52478
#        67265
#        85867
#        102665
#        122815
#        143487
#        160427
#        177269
#        195176
#        212516
#
# Disc length: 3026 seconds
#
# Revision: 0
# Processed by: cddbd v1.5.2PL0 Copyright (c) Steve Scherf et al.
# Submitted via: ExactAudioCopyFreeDBPlugin 1.0
#
DISCID=b80bd00d
DTITLE=Ciara - Ciara (Deluxe Edition)
DYEAR=2013
DGENRE=R&B
TTITLE0=I'm Out (feat. Nicki Minaj)
TTITLE1=Sophomore
TTITLE2=Body Party
TTITLE3=Keep On Lookin'
TTITLE4=Read My Lips
TTITLE5=Where You Go (feat. Future)
TTITLE6=Super Turnt Up (Feat. Ciara)
TTITLE7=DUI
TTITLE8=Livin' It Up (feat. Nicki Minaj)
TTITLE9=Overdose
TTITLE10=Body Party (Remix) (feat. Future and B.o.B)
TTITLE11=Boy Outta Here (feat. Rick Ross)
TTITLE12=One Night With You
EXTD=
EXTT0=
EXTT1=
EXTT2=
EXTT3=
EXTT4=
EXTT5=
EXTT6=
EXTT7=
EXTT8=
EXTT9=
EXTT10=
EXTT11=
EXTT12=
PLAYORDER=
